<svg xmlns="http://www.w3.org/2000/svg" viewBox="0 0 1200 160">
  <!-- "Built in Canada" closing banner for the Maple theme. Charcoal ground,
       faint mountain silhouette, maple mark, editorial type. -->
  <rect width="1200" height="160" fill="#1A1F22"/>
  <path fill="#12171A" opacity="0.9" d="M700 160 L700 118 L800 66 L880 112 L980 48 L1080 116 L1160 84 L1200 108 L1200 160 Z"/>
  <path fill="#161B1E" opacity="0.8" d="M0 160 L0 120 L90 78 L170 122 L250 92 L330 132 L420 104 L500 140 L560 120 L560 160 Z"/>
  <rect y="0" width="1200" height="1.5" fill="#C5CCD1" opacity="0.14"/>
  <rect y="158.5" width="1200" height="1.5" fill="#C5CCD1" opacity="0.14"/>
  <g transform="translate(56 36) scale(0.9)">
    <path fill="#C6283B" d="M50 4 L56.5 20 L67 12.5 L64.5 27.5 L79 23 L71.5 38.5 L87.5 39.5 L73.5 51 L83.5 64.5 L66.5 61 L68.5 76.5 L55.5 66.5 L52.6 92 L47.4 92 L44.5 66.5 L31.5 76.5 L33.5 61 L16.5 64.5 L26.5 51 L12.5 39.5 L28.5 38.5 L21 23 L35.5 27.5 L33 12.5 L43.5 20 Z"/>
  </g>
  <text x="655" y="80" text-anchor="middle" font-family="Arial, Helvetica, sans-serif" font-size="33" font-weight="800" letter-spacing="2.5" fill="#F5F5F2">BUILT IN CANADA. MADE FOR YOUR PEAK.</text>
  <text x="655" y="120" text-anchor="middle" font-family="Arial, Helvetica, sans-serif" font-size="14" font-weight="700" letter-spacing="7" fill="#E4586B">DISCIPLINE &#9733; CONSISTENCY &#9733; RESILIENCE</text>
</svg>
