<svg xmlns="http://www.w3.org/2000/svg" viewBox="0 0 1200 160">
  <!-- "Built in Canada" closing banner for the Maple theme. Charcoal ground,
       faint mountain silhouette, maple mark, editorial type. -->
  <rect width="1200" height="160" fill="#1A1F22"/>
  <path fill="#12171A" opacity="0.9" d="M700 160 L700 118 L800 66 L880 112 L980 48 L1080 116 L1160 84 L1200 108 L1200 160 Z"/>
  <path fill="#161B1E" opacity="0.8" d="M0 160 L0 120 L90 78 L170 122 L250 92 L330 132 L420 104 L500 140 L560 120 L560 160 Z"/>
  <rect y="0" width="1200" height="1.5" fill="#C5CCD1" opacity="0.14"/>
  <rect y="158.5" width="1200" height="1.5" fill="#C5CCD1" opacity="0.14"/>
  <g transform="translate(56 36) scale(0.9)">
    <path fill="#C6283B" d="M50 6 C52 16 57 23 64 26 L76 18 L71 33 C79 34 87 38 92 44 L79 52 L86 64 C77 63 69 60 63 55 L59 68 L52 62 L53 92 L47 92 L48 62 L41 68 L37 55 C31 60 23 63 14 64 L21 52 L8 44 C13 38 21 34 29 33 L24 18 L36 26 C43 23 48 16 50 6 Z"/>
  </g>
  <text x="655" y="80" text-anchor="middle" font-family="Arial, Helvetica, sans-serif" font-size="33" font-weight="800" letter-spacing="2.5" fill="#F5F5F2">BUILT IN CANADA. MADE FOR YOUR PEAK.</text>
  <text x="655" y="120" text-anchor="middle" font-family="Arial, Helvetica, sans-serif" font-size="14" font-weight="700" letter-spacing="7" fill="#E4586B">DISCIPLINE &#9733; CONSISTENCY &#9733; RESILIENCE</text>
</svg>
