<svg xmlns="http://www.w3.org/2000/svg" viewBox="0 0 1200 160">
  <!-- "Built in Canada" closing banner — atmospheric: dusk gradient, layered
       semi-transparent mountain ranges, snow-light glow, canonical flag leaf. -->
  <defs>
    <linearGradient id="sky" x1="0" y1="0" x2="0" y2="1">
      <stop offset="0" stop-color="#242C31"/>
      <stop offset="0.55" stop-color="#1A1F22"/>
      <stop offset="1" stop-color="#14181B"/>
    </linearGradient>
    <radialGradient id="snowlight" cx="0.5" cy="0.1" r="0.9">
      <stop offset="0" stop-color="#C5CCD1" stop-opacity="0.13"/>
      <stop offset="0.5" stop-color="#C5CCD1" stop-opacity="0.04"/>
      <stop offset="1" stop-color="#C5CCD1" stop-opacity="0"/>
    </radialGradient>
  </defs>
  <rect width="1200" height="160" fill="url(#sky)"/>
  <rect width="1200" height="160" fill="url(#snowlight)"/>
  <!-- Far range -->
  <path fill="#3B464D" opacity="0.38" d="M0 160 L0 96 L120 54 L230 100 L340 42 L470 104 L600 58 L730 108 L860 40 L980 96 L1090 66 L1200 100 L1200 160 Z"/>
  <!-- Mid range -->
  <path fill="#2C353B" opacity="0.55" d="M0 160 L0 122 L100 84 L210 126 L330 92 L450 134 L570 100 L700 138 L820 96 L950 132 L1070 104 L1200 128 L1200 160 Z"/>
  <!-- Near ridge -->
  <path fill="#20272B" opacity="0.85" d="M0 160 L0 140 L160 116 L320 146 L480 122 L660 150 L840 126 L1020 148 L1200 132 L1200 160 Z"/>
  <rect y="0" width="1200" height="1.5" fill="#C5CCD1" opacity="0.14"/>
  <rect y="158.5" width="1200" height="1.5" fill="#C5CCD1" opacity="0.14"/>
  <path fill="#C6283B" transform="translate(64 34) scale(0.02135) translate(-540 -400)" d="m 2490,4430 -45,-863 a 95,95 0 0 1 111,-98 l 859,151 -116,-320 a 65,65 0 0 1 20,-73 l 941,-762 -212,-99 a 65,65 0 0 1 -34,-79 l 186,-572 -542,115 a 65,65 0 0 1 -73,-38 l -105,-247 -423,454 a 65,65 0 0 1 -111,-57 l 204,-1052 -327,189 a 65,65 0 0 1 -91,-27 l -332,-652 -332,652 a 65,65 0 0 1 -91,27 l -327,-189 204,1052 a 65,65 0 0 1 -111,57 l -423,-454 -105,247 a 65,65 0 0 1 -73,38 l -542,-115 186,572 a 65,65 0 0 1 -34,79 l -212,99 941,762 a 65,65 0 0 1 20,73 l -116,320 859,-151 a 95,95 0 0 1 111,98 l -45,863 z"/>
  <text x="655" y="80" text-anchor="middle" font-family="Arial, Helvetica, sans-serif" font-size="33" font-weight="800" letter-spacing="2.5" fill="#F5F5F2">BUILT IN CANADA. MADE FOR YOUR PEAK.</text>
  <text x="655" y="120" text-anchor="middle" font-family="Arial, Helvetica, sans-serif" font-size="14" font-weight="700" letter-spacing="7" fill="#E4586B">DISCIPLINE &#9733; CONSISTENCY &#9733; RESILIENCE</text>
</svg>
