<svg xmlns="http://www.w3.org/2000/svg" viewBox="0 0 1000 500">
  <!-- Canadian flag chip for the brand lockup: 1:2:1 pale bands, canonical leaf. -->
  <rect width="1000" height="500" fill="#F5F5F2"/>
  <rect width="250" height="500" fill="#C6283B"/>
  <rect x="750" width="250" height="500" fill="#C6283B"/>
  <path fill="#C6283B" transform="translate(500 250) scale(0.0943) translate(-2400 -2415)" d="m 2490,4430 -45,-863 a 95,95 0 0 1 111,-98 l 859,151 -116,-320 a 65,65 0 0 1 20,-73 l 941,-762 -212,-99 a 65,65 0 0 1 -34,-79 l 186,-572 -542,115 a 65,65 0 0 1 -73,-38 l -105,-247 -423,454 a 65,65 0 0 1 -111,-57 l 204,-1052 -327,189 a 65,65 0 0 1 -91,-27 l -332,-652 -332,652 a 65,65 0 0 1 -91,27 l -327,-189 204,1052 a 65,65 0 0 1 -111,57 l -423,-454 -105,247 a 65,65 0 0 1 -73,38 l -542,-115 186,572 a 65,65 0 0 1 -34,79 l -212,99 941,762 a 65,65 0 0 1 20,73 l -116,320 859,-151 a 95,95 0 0 1 111,98 l -45,863 z"/>
</svg>
