<svg xmlns="http://www.w3.org/2000/svg" viewBox="0 0 100 100">
  <!-- Stylized maple mark (brand emblem): three dominant lobes, deep notches,
       tapered stem — reads as a maple leaf, not a starburst. Functional
       artwork; swap for owner-supplied brand vector if/when provided. -->
  <path fill="#C6283B" d="M50 6 C52 16 57 23 64 26 L76 18 L71 33 C79 34 87 38 92 44 L79 52 L86 64 C77 63 69 60 63 55 L59 68 L52 62 L53 92 L47 92 L48 62 L41 68 L37 55 C31 60 23 63 14 64 L21 52 L8 44 C13 38 21 34 29 33 L24 18 L36 26 C43 23 48 16 50 6 Z"/>
</svg>
