<svg xmlns="http://www.w3.org/2000/svg" viewBox="0 0 1200 160" preserveAspectRatio="xMidYMid slice"><defs><linearGradient id="fadeL" x1="0" x2="1"><stop offset="0" stop-color="#0a1a3a" stop-opacity="0"/><stop offset="0.7" stop-color="#0a1a3a" stop-opacity="0.55"/><stop offset="1" stop-color="#0a1a3a" stop-opacity="1"/></linearGradient><linearGradient id="fadeR" x1="1" x2="0"><stop offset="0" stop-color="#0a1a3a" stop-opacity="0"/><stop offset="0.7" stop-color="#0a1a3a" stop-opacity="0.55"/><stop offset="1" stop-color="#0a1a3a" stop-opacity="1"/></linearGradient><linearGradient id="ctr" x1="0" x2="1"><stop offset="0" stop-color="#0a1a3a" stop-opacity="0"/><stop offset="0.28" stop-color="#0a1a3a" stop-opacity="0.6"/><stop offset="0.72" stop-color="#0a1a3a" stop-opacity="0.6"/><stop offset="1" stop-color="#0a1a3a" stop-opacity="0"/></linearGradient></defs><rect width="1200" height="160" fill="#0a1a3a"/><g><rect x="0" y="0" width="360" height="160" fill="#B31942"/><rect x="0" y="12.3" width="360" height="12.3" fill="#FFFFFF"/><rect x="0" y="36.9" width="360" height="12.3" fill="#FFFFFF"/><rect x="0" y="61.5" width="360" height="12.3" fill="#FFFFFF"/><rect x="0" y="86.2" width="360" height="12.3" fill="#FFFFFF"/><rect x="0" y="110.8" width="360" height="12.3" fill="#FFFFFF"/><rect x="0" y="135.4" width="360" height="12.3" fill="#FFFFFF"/><rect x="0" y="0" width="151.2" height="86.2" fill="#0A3161"/><polygon points="14.4,2.7 15.6,6.2 19.3,6.2 16.4,8.5 17.4,12.0 14.4,9.9 11.4,12.0 12.4,8.5 9.5,6.2 13.2,6.2" fill="#FFFFFF"/><polygon points="43.2,2.7 44.4,6.2 48.1,6.2 45.2,8.5 46.2,12.0 43.2,9.9 40.2,12.0 41.2,8.5 38.3,6.2 42.0,6.2" fill="#FFFFFF"/><polygon points="72.0,2.7 73.2,6.2 76.9,6.2 74.0,8.5 75.0,12.0 72.0,9.9 69.0,12.0 70.0,8.5 67.1,6.2 70.8,6.2" fill="#FFFFFF"/><polygon points="100.8,2.7 102.0,6.2 105.7,6.2 102.8,8.5 103.8,12.0 100.8,9.9 97.8,12.0 98.8,8.5 95.9,6.2 99.6,6.2" fill="#FFFFFF"/><polygon points="129.6,2.7 130.8,6.2 134.5,6.2 131.6,8.5 132.6,12.0 129.6,9.9 126.6,12.0 127.6,8.5 124.7,6.2 128.4,6.2" fill="#FFFFFF"/><polygon points="21.6,18.3 22.8,21.8 26.5,21.9 23.6,24.1 24.6,27.7 21.6,25.6 18.6,27.7 19.6,24.1 16.7,21.9 20.4,21.8" fill="#FFFFFF"/><polygon points="50.4,18.3 51.6,21.8 55.3,21.9 52.4,24.1 53.4,27.7 50.4,25.6 47.4,27.7 48.4,24.1 45.5,21.9 49.2,21.8" fill="#FFFFFF"/><polygon points="79.2,18.3 80.4,21.8 84.1,21.9 81.2,24.1 82.2,27.7 79.2,25.6 76.2,27.7 77.2,24.1 74.3,21.9 78.0,21.8" fill="#FFFFFF"/><polygon points="108.0,18.3 109.2,21.8 112.9,21.9 110.0,24.1 111.0,27.7 108.0,25.6 105.0,27.7 106.0,24.1 103.1,21.9 106.8,21.8" fill="#FFFFFF"/><polygon points="14.4,34.0 15.6,37.5 19.3,37.6 16.4,39.8 17.4,43.3 14.4,41.2 11.4,43.3 12.4,39.8 9.5,37.6 13.2,37.5" fill="#FFFFFF"/><polygon points="43.2,34.0 44.4,37.5 48.1,37.6 45.2,39.8 46.2,43.3 43.2,41.2 40.2,43.3 41.2,39.8 38.3,37.6 42.0,37.5" fill="#FFFFFF"/><polygon points="72.0,34.0 73.2,37.5 76.9,37.6 74.0,39.8 75.0,43.3 72.0,41.2 69.0,43.3 70.0,39.8 67.1,37.6 70.8,37.5" fill="#FFFFFF"/><polygon points="100.8,34.0 102.0,37.5 105.7,37.6 102.8,39.8 103.8,43.3 100.8,41.2 97.8,43.3 98.8,39.8 95.9,37.6 99.6,37.5" fill="#FFFFFF"/><polygon points="129.6,34.0 130.8,37.5 134.5,37.6 131.6,39.8 132.6,43.3 129.6,41.2 126.6,43.3 127.6,39.8 124.7,37.6 128.4,37.5" fill="#FFFFFF"/><polygon points="21.6,49.7 22.8,53.2 26.5,53.2 23.6,55.5 24.6,59.0 21.6,56.9 18.6,59.0 19.6,55.5 16.7,53.2 20.4,53.2" fill="#FFFFFF"/><polygon points="50.4,49.7 51.6,53.2 55.3,53.2 52.4,55.5 53.4,59.0 50.4,56.9 47.4,59.0 48.4,55.5 45.5,53.2 49.2,53.2" fill="#FFFFFF"/><polygon points="79.2,49.7 80.4,53.2 84.1,53.2 81.2,55.5 82.2,59.0 79.2,56.9 76.2,59.0 77.2,55.5 74.3,53.2 78.0,53.2" fill="#FFFFFF"/><polygon points="108.0,49.7 109.2,53.2 112.9,53.2 110.0,55.5 111.0,59.0 108.0,56.9 105.0,59.0 106.0,55.5 103.1,53.2 106.8,53.2" fill="#FFFFFF"/><polygon points="14.4,65.3 15.6,68.8 19.3,68.9 16.4,71.1 17.4,74.7 14.4,72.6 11.4,74.7 12.4,71.1 9.5,68.9 13.2,68.8" fill="#FFFFFF"/><polygon points="43.2,65.3 44.4,68.8 48.1,68.9 45.2,71.1 46.2,74.7 43.2,72.6 40.2,74.7 41.2,71.1 38.3,68.9 42.0,68.8" fill="#FFFFFF"/><polygon points="72.0,65.3 73.2,68.8 76.9,68.9 74.0,71.1 75.0,74.7 72.0,72.6 69.0,74.7 70.0,71.1 67.1,68.9 70.8,68.8" fill="#FFFFFF"/><polygon points="100.8,65.3 102.0,68.8 105.7,68.9 102.8,71.1 103.8,74.7 100.8,72.6 97.8,74.7 98.8,71.1 95.9,68.9 99.6,68.8" fill="#FFFFFF"/><polygon points="129.6,65.3 130.8,68.8 134.5,68.9 131.6,71.1 132.6,74.7 129.6,72.6 126.6,74.7 127.6,71.1 124.7,68.9 128.4,68.8" fill="#FFFFFF"/></g><rect x="0" y="0" width="480" height="160" fill="url(#fadeL)"/><g transform="translate(2040,0) scale(-1,1)"><rect x="840" y="0" width="360" height="160" fill="#B31942"/><rect x="840" y="12.3" width="360" height="12.3" fill="#FFFFFF"/><rect x="840" y="36.9" width="360" height="12.3" fill="#FFFFFF"/><rect x="840" y="61.5" width="360" height="12.3" fill="#FFFFFF"/><rect x="840" y="86.2" width="360" height="12.3" fill="#FFFFFF"/><rect x="840" y="110.8" width="360" height="12.3" fill="#FFFFFF"/><rect x="840" y="135.4" width="360" height="12.3" fill="#FFFFFF"/><rect x="840" y="0" width="151.2" height="86.2" fill="#0A3161"/><polygon points="854.4,2.7 855.6,6.2 859.3,6.2 856.4,8.5 857.4,12.0 854.4,9.9 851.4,12.0 852.4,8.5 849.5,6.2 853.2,6.2" fill="#FFFFFF"/><polygon points="883.2,2.7 884.4,6.2 888.1,6.2 885.2,8.5 886.2,12.0 883.2,9.9 880.2,12.0 881.2,8.5 878.3,6.2 882.0,6.2" fill="#FFFFFF"/><polygon points="912.0,2.7 913.2,6.2 916.9,6.2 914.0,8.5 915.0,12.0 912.0,9.9 909.0,12.0 910.0,8.5 907.1,6.2 910.8,6.2" fill="#FFFFFF"/><polygon points="940.8,2.7 942.0,6.2 945.7,6.2 942.8,8.5 943.8,12.0 940.8,9.9 937.8,12.0 938.8,8.5 935.9,6.2 939.6,6.2" fill="#FFFFFF"/><polygon points="969.6,2.7 970.8,6.2 974.5,6.2 971.6,8.5 972.6,12.0 969.6,9.9 966.6,12.0 967.6,8.5 964.7,6.2 968.4,6.2" fill="#FFFFFF"/><polygon points="861.6,18.3 862.8,21.8 866.5,21.9 863.6,24.1 864.6,27.7 861.6,25.6 858.6,27.7 859.6,24.1 856.7,21.9 860.4,21.8" fill="#FFFFFF"/><polygon points="890.4,18.3 891.6,21.8 895.3,21.9 892.4,24.1 893.4,27.7 890.4,25.6 887.4,27.7 888.4,24.1 885.5,21.9 889.2,21.8" fill="#FFFFFF"/><polygon points="919.2,18.3 920.4,21.8 924.1,21.9 921.2,24.1 922.2,27.7 919.2,25.6 916.2,27.7 917.2,24.1 914.3,21.9 918.0,21.8" fill="#FFFFFF"/><polygon points="948.0,18.3 949.2,21.8 952.9,21.9 950.0,24.1 951.0,27.7 948.0,25.6 945.0,27.7 946.0,24.1 943.1,21.9 946.8,21.8" fill="#FFFFFF"/><polygon points="854.4,34.0 855.6,37.5 859.3,37.6 856.4,39.8 857.4,43.3 854.4,41.2 851.4,43.3 852.4,39.8 849.5,37.6 853.2,37.5" fill="#FFFFFF"/><polygon points="883.2,34.0 884.4,37.5 888.1,37.6 885.2,39.8 886.2,43.3 883.2,41.2 880.2,43.3 881.2,39.8 878.3,37.6 882.0,37.5" fill="#FFFFFF"/><polygon points="912.0,34.0 913.2,37.5 916.9,37.6 914.0,39.8 915.0,43.3 912.0,41.2 909.0,43.3 910.0,39.8 907.1,37.6 910.8,37.5" fill="#FFFFFF"/><polygon points="940.8,34.0 942.0,37.5 945.7,37.6 942.8,39.8 943.8,43.3 940.8,41.2 937.8,43.3 938.8,39.8 935.9,37.6 939.6,37.5" fill="#FFFFFF"/><polygon points="969.6,34.0 970.8,37.5 974.5,37.6 971.6,39.8 972.6,43.3 969.6,41.2 966.6,43.3 967.6,39.8 964.7,37.6 968.4,37.5" fill="#FFFFFF"/><polygon points="861.6,49.7 862.8,53.2 866.5,53.2 863.6,55.5 864.6,59.0 861.6,56.9 858.6,59.0 859.6,55.5 856.7,53.2 860.4,53.2" fill="#FFFFFF"/><polygon points="890.4,49.7 891.6,53.2 895.3,53.2 892.4,55.5 893.4,59.0 890.4,56.9 887.4,59.0 888.4,55.5 885.5,53.2 889.2,53.2" fill="#FFFFFF"/><polygon points="919.2,49.7 920.4,53.2 924.1,53.2 921.2,55.5 922.2,59.0 919.2,56.9 916.2,59.0 917.2,55.5 914.3,53.2 918.0,53.2" fill="#FFFFFF"/><polygon points="948.0,49.7 949.2,53.2 952.9,53.2 950.0,55.5 951.0,59.0 948.0,56.9 945.0,59.0 946.0,55.5 943.1,53.2 946.8,53.2" fill="#FFFFFF"/><polygon points="854.4,65.3 855.6,68.8 859.3,68.9 856.4,71.1 857.4,74.7 854.4,72.6 851.4,74.7 852.4,71.1 849.5,68.9 853.2,68.8" fill="#FFFFFF"/><polygon points="883.2,65.3 884.4,68.8 888.1,68.9 885.2,71.1 886.2,74.7 883.2,72.6 880.2,74.7 881.2,71.1 878.3,68.9 882.0,68.8" fill="#FFFFFF"/><polygon points="912.0,65.3 913.2,68.8 916.9,68.9 914.0,71.1 915.0,74.7 912.0,72.6 909.0,74.7 910.0,71.1 907.1,68.9 910.8,68.8" fill="#FFFFFF"/><polygon points="940.8,65.3 942.0,68.8 945.7,68.9 942.8,71.1 943.8,74.7 940.8,72.6 937.8,74.7 938.8,71.1 935.9,68.9 939.6,68.8" fill="#FFFFFF"/><polygon points="969.6,65.3 970.8,68.8 974.5,68.9 971.6,71.1 972.6,74.7 969.6,72.6 966.6,74.7 967.6,71.1 964.7,68.9 968.4,68.8" fill="#FFFFFF"/></g><rect x="720" y="0" width="480" height="160" fill="url(#fadeR)"/><rect width="1200" height="160" fill="url(#ctr)"/><text x="600" y="70" text-anchor="middle" font-family="'Arial Black',Arial,sans-serif" font-weight="800" font-size="44" letter-spacing="1" fill="#ffffff">STRONGER EVERY DAY. BUILT IN AMERICA.</text><text x="600" y="108" text-anchor="middle" font-family="Arial,sans-serif" font-weight="700" font-size="20" letter-spacing="6" fill="#dfe6f2">DISCIPLINE <tspan fill="#e11d2f">&#9733;</tspan> CONSISTENCY <tspan fill="#e11d2f">&#9733;</tspan> STRENGTH</text></svg>