<svg xmlns="http://www.w3.org/2000/svg" viewBox="0 0 1235 650" preserveAspectRatio="xMidYMid slice"><rect width="1235" height="650" fill="#B31942"/><rect y="50" width="1235" height="50" fill="#FFFFFF"/><rect y="150" width="1235" height="50" fill="#FFFFFF"/><rect y="250" width="1235" height="50" fill="#FFFFFF"/><rect y="350" width="1235" height="50" fill="#FFFFFF"/><rect y="450" width="1235" height="50" fill="#FFFFFF"/><rect y="550" width="1235" height="50" fill="#FFFFFF"/><rect width="494" height="350" fill="#0A3161"/><defs><polygon id="s" points="0.00,-17.00 4.11,-5.66 16.17,-5.25 6.66,2.16 9.99,13.75 0.00,7.00 -9.99,13.75 -6.66,2.16 -16.17,-5.25 -4.11,-5.66" fill="#FFFFFF"/></defs><use href="#s" x="41" y="35"/><use href="#s" x="123" y="35"/><use href="#s" x="205" y="35"/><use href="#s" x="287" y="35"/><use href="#s" x="369" y="35"/><use href="#s" x="451" y="35"/><use href="#s" x="82" y="70"/><use href="#s" x="164" y="70"/><use href="#s" x="246" y="70"/><use href="#s" x="328" y="70"/><use href="#s" x="410" y="70"/><use href="#s" x="41" y="105"/><use href="#s" x="123" y="105"/><use href="#s" x="205" y="105"/><use href="#s" x="287" y="105"/><use href="#s" x="369" y="105"/><use href="#s" x="451" y="105"/><use href="#s" x="82" y="140"/><use href="#s" x="164" y="140"/><use href="#s" x="246" y="140"/><use href="#s" x="328" y="140"/><use href="#s" x="410" y="140"/><use href="#s" x="41" y="175"/><use href="#s" x="123" y="175"/><use href="#s" x="205" y="175"/><use href="#s" x="287" y="175"/><use href="#s" x="369" y="175"/><use href="#s" x="451" y="175"/><use href="#s" x="82" y="210"/><use href="#s" x="164" y="210"/><use href="#s" x="246" y="210"/><use href="#s" x="328" y="210"/><use href="#s" x="410" y="210"/><use href="#s" x="41" y="245"/><use href="#s" x="123" y="245"/><use href="#s" x="205" y="245"/><use href="#s" x="287" y="245"/><use href="#s" x="369" y="245"/><use href="#s" x="451" y="245"/><use href="#s" x="82" y="280"/><use href="#s" x="164" y="280"/><use href="#s" x="246" y="280"/><use href="#s" x="328" y="280"/><use href="#s" x="410" y="280"/><use href="#s" x="41" y="315"/><use href="#s" x="123" y="315"/><use href="#s" x="205" y="315"/><use href="#s" x="287" y="315"/><use href="#s" x="369" y="315"/><use href="#s" x="451" y="315"/></svg>