<svg xmlns="http://www.w3.org/2000/svg" viewBox="0 0 720 480" role="img" aria-labelledby="title desc">
  <title id="title">Cat-cow movement reference</title>
  <desc id="desc">Stylized athlete moving through a cat-cow spinal mobility drill.</desc>
  <defs>
    <linearGradient id="bg" x1="0%" x2="100%" y1="0%" y2="100%">
      <stop offset="0%" stop-color="#132317"/>
      <stop offset="100%" stop-color="#8ed76d"/>
    </linearGradient>
  </defs>
  <rect width="720" height="480" rx="36" fill="url(#bg)"/>
  <circle cx="288" cy="160" r="28" fill="#fff3ea"/>
  <path d="M250 194c40 8 78 26 108 54l68 62-30 24-64-52c-12-10-24-14-38-14h-34c-18 0-30 6-42 18l-34 34-28-26 38-44c16-18 34-32 56-42z" fill="#ecffe9"/>
  <path d="M214 318c-8 18-10 34-6 48" fill="none" stroke="#d7f260" stroke-linecap="round" stroke-width="12"/>
  <path d="M472 316c10 18 16 34 16 48" fill="none" stroke="#d7f260" stroke-linecap="round" stroke-width="12"/>
</svg>
