<svg xmlns="http://www.w3.org/2000/svg" viewBox="0 0 720 480" role="img" aria-labelledby="title desc">
  <title id="title">Overhead press movement reference</title>
  <desc id="desc">Stylized athlete pressing dumbbells overhead with a stacked torso.</desc>
  <defs>
    <linearGradient id="bg" x1="0%" x2="100%" y1="0%" y2="100%">
      <stop offset="0%" stop-color="#171020"/>
      <stop offset="100%" stop-color="#9557ff"/>
    </linearGradient>
  </defs>
  <rect width="720" height="480" rx="36" fill="url(#bg)"/>
  <circle cx="360" cy="122" r="28" fill="#fff3ea"/>
  <path d="M336 150h48l24 78-28 32h-42l-28-32z" fill="#f7f4ff"/>
  <path d="M320 164l-40 56" stroke="#80dc3b" stroke-linecap="round" stroke-width="16"/>
  <path d="M400 164l40 56" stroke="#80dc3b" stroke-linecap="round" stroke-width="16"/>
  <path d="M264 210h32v30h-32zM424 210h32v30h-32z" fill="#fff3ea"/>
  <path d="M342 260l-16 112h34l10-96zM380 260l10 112h34l-16-112z" fill="#09060f"/>
  <path d="M300 102l-22-26M420 102l22-26" stroke="#80dc3b" stroke-linecap="round" stroke-width="12"/>
</svg>
