<svg xmlns="http://www.w3.org/2000/svg" viewBox="0 0 720 480" role="img" aria-labelledby="title desc">
  <title id="title">Plank movement reference</title>
  <desc id="desc">Stylized athlete holding a strong forearm plank position.</desc>
  <defs>
    <linearGradient id="bg" x1="0%" x2="100%" y1="0%" y2="100%">
      <stop offset="0%" stop-color="#0b172f"/>
      <stop offset="100%" stop-color="#2db853"/>
    </linearGradient>
  </defs>
  <rect width="720" height="480" rx="36" fill="url(#bg)"/>
  <circle cx="522" cy="166" r="30" fill="#fff3ea"/>
  <path d="M210 290c50-28 118-36 188-30l102 10c22 2 36 20 36 40v24H300c-22 0-40 12-52 30l-24 42h-46l34-64c6-12 4-24-2-32z" fill="#d7f260"/>
  <path d="M170 382h394" stroke="#f7f9ff" stroke-linecap="round" stroke-opacity=".54" stroke-width="10"/>
  <path d="M246 320l-18 72h34l18-68zM478 330l18 62h34l-16-62z" fill="#08100a"/>
</svg>
