<svg xmlns="http://www.w3.org/2000/svg" viewBox="0 0 720 480" role="img" aria-labelledby="title desc">
  <title id="title">Push-up movement reference</title>
  <desc id="desc">Stylized athlete holding a push-up plank.</desc>
  <defs>
    <linearGradient id="bg" x1="0%" x2="100%" y1="0%" y2="100%">
      <stop offset="0%" stop-color="#14203f"/>
      <stop offset="100%" stop-color="#4a7cff"/>
    </linearGradient>
  </defs>
  <rect width="720" height="480" rx="36" fill="url(#bg)"/>
  <circle cx="520" cy="166" r="32" fill="#fff3ea"/>
  <path d="M212 286c42-26 112-40 170-38l120 8c24 2 42 22 40 46l-4 26-252-8c-18 0-34 10-44 26l-18 30h-50l34-58c8-14 10-22 4-32z" fill="#f2c14a"/>
  <path d="M168 378h398" stroke="#f7f9ff" stroke-linecap="round" stroke-opacity=".55" stroke-width="10"/>
  <path d="M230 334l-18 72h34l20-70zM486 332l20 74h34l-18-74z" fill="#081325"/>
</svg>
